<svg height="512pt" viewBox="0 0 512 512" width="512pt" xmlns="http://www.w3.org/2000/svg"><path d="m512 256c0-17.375-6.105469-34.210938-17.011719-47.539062 4.976563-16.484376 4.171875-34.375-2.476562-50.429688-6.648438-16.050781-18.730469-29.269531-33.90625-37.410156-1.710938-17.132813-9.300781-33.355469-21.585938-45.640625-12.289062-12.285157-28.507812-19.875-45.640625-21.585938-8.140625-15.175781-21.359375-27.257812-37.410156-33.910156-16.054688-6.644531-33.945312-7.449219-50.429688-2.472656-13.328124-10.90625-30.164062-17.011719-47.539062-17.011719l-150 256 150 256c17.375 0 34.210938-6.105469 47.539062-17.011719 16.484376 4.976563 34.375 4.171875 50.429688-2.476562 16.050781-6.648438 29.269531-18.730469 37.410156-33.90625 17.132813-1.710938 33.355469-9.300781 45.640625-21.585938 12.285157-12.285156 19.875-28.507812 21.585938-45.644531 15.175781-8.136719 27.257812-21.359375 33.90625-37.410156 6.648437-16.050782 7.453125-33.941406 2.476562-50.429688 10.90625-13.324218 17.011719-30.160156 17.011719-47.535156zm0 0" fill="#ff9d3b"/><path d="m208.460938 17.011719c-16.484376-4.976563-34.375-4.171875-50.429688 2.476562-16.050781 6.648438-29.269531 18.730469-37.410156 33.90625-17.132813 1.710938-33.355469 9.300781-45.640625 21.585938-12.285157 12.285156-19.875 28.507812-21.585938 45.644531-15.175781 8.136719-27.257812 21.359375-33.90625 37.410156-6.648437 16.050782-7.453125 33.941406-2.476562 50.429688-10.90625 13.324218-17.011719 30.160156-17.011719 47.535156s6.105469 34.210938 17.011719 47.539062c-4.976563 16.484376-4.171875 34.375 2.476562 50.429688 6.648438 16.050781 18.730469 29.269531 33.90625 37.410156 1.710938 17.132813 9.300781 33.355469 21.585938 45.640625 12.285156 12.285157 28.507812 19.875 45.640625 21.585938 8.140625 15.175781 21.359375 27.257812 37.410156 33.910156 16.054688 6.644531 33.945312 7.449219 50.429688 2.476563 13.328124 10.902343 30.164062 17.007812 47.539062 17.007812v-512c-17.375 0-34.210938 6.105469-47.539062 17.011719zm0 0" fill="#ffc40f"/><path d="m256 76-90 180 90 180c99.410156 0 180-80.589844 180-180s-80.589844-180-180-180zm0 0" fill="#ff7666"/><path d="m76 256c0 99.410156 80.589844 180 180 180v-360c-99.410156 0-180 80.589844-180 180zm0 0" fill="#ff9d3b"/><path d="m347.90625 274-151.90625-60 60 135h80.367188zm0 0" fill="#ff9d3b"/><path d="m164.09375 274 11.539062 75h80.367188v-135zm0 0" fill="#ffc40f"/><path d="m347.90625 274 13.777344-89.542969-56.542969 12.925781-49.140625-56.160156-60 96.386719 60 36.390625zm0 0" fill="#ffc40f"/><path d="m256 141.222656-49.140625 56.160156-56.542969-12.925781 13.777344 89.542969h91.90625zm0 0" fill="#ffd959"/></svg>