<svg height="512pt" viewBox="-39 0 511 512" width="512pt" xmlns="http://www.w3.org/2000/svg"><path d="m252.726562 504.5c-8.304687 0-15.667968-5.945312-17.175781-14.40625-1.695312-9.496094 4.632813-18.570312 14.132813-20.261719 7.628906-1.359375 13.375-6.007812 15.363281-12.429687 2.949219-9.507813-2.378906-21.878906-14.621094-33.929688-6.875-6.769531-6.960937-17.828125-.191406-24.703125 6.765625-6.875 17.824219-6.960937 24.703125-.191406 21.875 21.535156 30.433594 46.75 23.480469 69.171875-5.847657 18.859375-22.171875 32.835938-42.609375 36.476562-1.035156.183594-2.066406.273438-3.082032.273438zm0 0" fill="#efd176"/><path d="m155.929688 504.5c-8.304688 0-15.667969-5.945312-17.175782-14.40625-1.691406-9.496094 4.632813-18.570312 14.132813-20.261719 7.628906-1.359375 13.375-6.007812 15.367187-12.429687 2.945313-9.507813-2.382812-21.878906-14.625-33.929688-6.875-6.769531-6.960937-17.828125-.191406-24.703125 6.765625-6.875 17.828125-6.960937 24.703125-.191406 21.875 21.535156 30.433594 46.75 23.480469 69.171875-5.847656 18.859375-22.171875 32.835938-42.609375 36.476562-1.03125.183594-2.066407.273438-3.082031.273438zm0 0" fill="#efd176"/><path d="m348.105469 465.140625c-8.097657 0-15.359375-5.660156-17.082031-13.902344-3.003907-14.394531-5.21875-27.601562-7.359376-40.375-5.183593-30.949219-10.082031-60.183593-25.671874-104.75-3.1875-9.105469 1.613281-19.066406 10.71875-22.253906 9.105468-3.183594 19.070312 1.613281 22.257812 10.71875 16.574219 47.382813 21.953125 79.476563 27.152344 110.511719 2.082031 12.433594 4.238281 25.292968 7.101562 39.007812 1.972656 9.441406-4.082031 18.695313-13.527344 20.667969-1.203124.253906-2.40625.375-3.589843.375zm0 0" fill="#efd176"/><path d="m85.183594 465.140625c-1.183594 0-2.382813-.121094-3.589844-.375-9.441406-1.972656-15.5-11.226563-13.527344-20.667969 2.867188-13.714844 5.019532-26.574218 7.101563-39.007812 5.203125-31.035156 10.578125-63.128906 27.15625-110.511719 3.183593-9.105469 13.152343-13.910156 22.253906-10.71875 9.105469 3.183594 13.90625 13.148437 10.722656 22.253906-15.589843 44.566407-20.492187 73.800781-25.675781 104.75-2.140625 12.773438-4.351562 25.980469-7.359375 40.375-1.71875 8.238281-8.984375 13.902344-17.082031 13.902344zm0 0" fill="#efd176"/><path d="m168.621094 77.878906c24.578125 24.578125 28.789062 62.839844 29.207031 82.476563.152344 7.136719-5.679687 12.96875-12.816406 12.816406-19.636719-.417969-57.898438-4.628906-82.476563-29.207031-24.574218-24.578125-28.789062-62.839844-29.207031-82.476563-.152344-7.136719 5.679687-12.96875 12.816406-12.816406 19.636719.417969 57.902344 4.632813 82.476563 29.207031zm0 0" fill="#8ee2cf"/><path d="m150.316406 133.160156c-1.917968 0-3.839844-.730468-5.300781-2.195312l-29.476563-29.476563c-2.929687-2.929687-2.929687-7.679687 0-10.605469 2.929688-2.929687 7.679688-2.929687 10.605469 0l29.476563 29.472657c2.929687 2.929687 2.929687 7.679687 0 10.609375-1.464844 1.464844-3.382813 2.195312-5.304688 2.195312zm0 0" fill="#6fce91"/><path d="m264.667969 77.878906c-24.578125 24.578125-28.789063 62.839844-29.207031 82.476563-.152344 7.136719 5.679687 12.96875 12.816406 12.816406 19.636718-.417969 57.898437-4.628906 82.476562-29.207031 24.574219-24.578125 28.785156-62.839844 29.207032-82.476563.152343-7.136719-5.679688-12.96875-12.816407-12.816406-19.636719.417969-57.898437 4.632813-82.476562 29.207031zm0 0" fill="#8ee2cf"/><path d="m282.972656 133.160156c-1.917968 0-3.839844-.730468-5.304687-2.195312-2.929688-2.929688-2.929688-7.679688 0-10.609375l29.476562-29.472657c2.929688-2.929687 7.679688-2.929687 10.605469 0 2.929688 2.929688 2.929688 7.675782 0 10.605469l-29.476562 29.476563c-1.460938 1.464844-3.382813 2.195312-5.300782 2.195312zm0 0" fill="#6fce91"/><path d="m263.375 90.339844c0 34.753906-24.078125 64.789062-37.667969 78.972656-4.9375 5.152344-13.1875 5.152344-18.125 0-13.589843-14.183594-37.667969-44.21875-37.667969-78.972656 0-34.757813 24.078126-64.792969 37.667969-78.976563 4.9375-5.152343 13.1875-5.152343 18.125 0 13.589844 14.183594 37.667969 44.21875 37.667969 78.976563zm0 0" fill="#8ee2cf"/><path d="m216.644531 118.679688c-4.140625 0-7.5-3.355469-7.5-7.5v-41.683594c0-4.144532 3.359375-7.5 7.5-7.5s7.5 3.355468 7.5 7.5v41.683594c0 4.144531-3.359375 7.5-7.5 7.5zm0 0" fill="#6fce91"/><path d="m216.644531 140.90625c72.101563 0 123.640625 56.78125 130.550781 142.773438 7.1875 89.449218-26.460937 156.167968-130.550781 156.167968-104.085937 0-137.734375-66.71875-130.546875-156.167968 6.90625-85.992188 58.449219-142.773438 130.546875-142.773438zm0 0" fill="#f7ef87"/><g fill="#efd176"><path d="m173.542969 148.398438c-48.953125 18.074218-82.011719 67.636718-87.445313 135.28125-7.167968 89.199218 26.28125 155.789062 129.6875 156.160156-125.515625-76.792969-91.855468-215.34375-42.242187-291.441406zm0 0"/><path d="m229.320312 254.429688c-1.917968 0-3.839843-.730469-5.300781-2.195313l-7.375-7.375-7.371093 7.375c-2.929688 2.925781-7.679688 2.925781-10.609376 0-2.925781-2.929687-2.925781-7.679687 0-10.609375l12.679688-12.675781c2.925781-2.925781 7.675781-2.925781 10.605469 0l12.675781 12.675781c2.929688 2.929688 2.929688 7.679688 0 10.609375-1.464844 1.460937-3.386719 2.195313-5.304688 2.195313zm0 0"/><path d="m301.789062 254.429688c-1.917968 0-3.835937-.730469-5.300781-2.195313l-7.375-7.375-7.371093 7.375c-2.929688 2.925781-7.679688 2.925781-10.605469 0-2.929688-2.929687-2.929688-7.679687 0-10.605469l12.675781-12.679687c2.929688-2.925781 7.675781-2.925781 10.605469 0l12.675781 12.679687c2.929688 2.929688 2.929688 7.675782 0 10.605469-1.464844 1.460937-3.382812 2.195313-5.304688 2.195313zm0 0"/><path d="m156.851562 254.429688c-1.917968 0-3.839843-.730469-5.304687-2.195313l-7.371094-7.375-7.371093 7.375c-2.929688 2.925781-7.679688 2.925781-10.609376 0-2.925781-2.929687-2.925781-7.679687 0-10.605469l12.675782-12.679687c2.929687-2.925781 7.679687-2.925781 10.609375 0l12.675781 12.679687c2.929688 2.929688 2.929688 7.675782 0 10.605469-1.46875 1.460937-3.386719 2.195313-5.304688 2.195313zm0 0"/><path d="m265.554688 399.3125c-1.917969 0-3.835938-.734375-5.300782-2.199219l-7.375-7.371093-7.371094 7.371093c-2.929687 2.929688-7.679687 2.929688-10.605468 0-2.929688-2.929687-2.929688-7.675781 0-10.605469l12.675781-12.675781c2.929687-2.929687 7.675781-2.929687 10.605469 0l12.675781 12.675781c2.929687 2.929688 2.929687 7.679688 0 10.605469-1.464844 1.464844-3.382813 2.199219-5.304687 2.199219zm0 0"/><path d="m193.085938 399.3125c-1.917969 0-3.839844-.734375-5.304688-2.199219l-7.371094-7.371093-7.375 7.371093c-2.925781 2.929688-7.675781 2.929688-10.605468 0-2.929688-2.929687-2.929688-7.675781 0-10.605469l12.675781-12.675781c2.929687-2.929687 7.679687-2.929687 10.609375 0l12.675781 12.675781c2.925781 2.929688 2.925781 7.679688 0 10.605469-1.464844 1.464844-3.386719 2.199219-5.304687 2.199219zm0 0"/></g><path d="m216.644531 337.726562c14.851563 0 28.078125 10.082032 36.394531-7.117187 8.4375-17.441406-10.460937-43.328125-36.394531-43.328125-25.933593 0-44.832031 25.886719-36.394531 43.328125 8.316406 17.199219 21.542969 7.117187 36.394531 7.117187zm0 0" fill="#4e5660"/><path d="m159.5625 179.527344h-28.257812c-11.871094 0-20.71875 10.945312-18.230469 22.554687l1.5625 7.296875c2.632812 12.265625 13.472656 21.03125 26.019531 21.03125h9.554688c12.546874 0 23.386718-8.765625 26.019531-21.03125l1.5625-7.296875c2.488281-11.609375-6.359375-22.554687-18.230469-22.554687zm0 0" fill="#4e5660"/><path d="m273.726562 179.527344h28.257813c11.875 0 20.722656 10.945312 18.234375 22.554687l-1.566406 7.296875c-2.628906 12.265625-13.472656 21.03125-26.019532 21.03125h-9.554687c-12.546875 0-23.386719-8.765625-26.015625-21.03125l-1.566406-7.296875c-2.488282-11.609375 6.359375-22.554687 18.230468-22.554687zm0 0" fill="#4e5660"/><path d="m338.964844 363.605469c-13.765625-14.605469-8.597656-34.789063-18.230469-53.054688-2.917969-5.535156.769531-12.292969 7.007813-12.792969 33.195312-2.652343 49.691406 5.789063 61.210937 17.308594 14.601563 14.601563 13.535156 38.9375-3.207031 52.117188-14.019532 11.039062-34.542969 9.40625-46.78125-3.578125zm0 0" fill="#a3defe"/><path d="m355.621094 443.46875c.59375-20.058594 18.519531-30.679688 24.625-50.40625 1.851562-5.976562 9.238281-8.148438 14-4.089844 25.347656 21.597656 31.042968 39.230469 31.042968 55.519532 0 20.652343-17.964843 37.105468-39.117187 34.585937-17.71875-2.105469-31.078125-17.769531-30.550781-35.609375zm0 0" fill="#7acefa"/><path d="m94.324219 363.605469c13.765625-14.605469 8.597656-34.789063 18.230469-53.054688 2.921874-5.535156-.769532-12.292969-7.003907-12.792969-33.199219-2.652343-49.695312 5.789063-61.210937 17.308594-14.605469 14.601563-13.535156 38.9375 3.203125 52.117188 14.019531 11.039062 34.542969 9.40625 46.78125-3.578125zm0 0" fill="#a3defe"/><path d="m77.667969 443.46875c-.59375-20.058594-18.519531-30.679688-24.625-50.40625-1.851563-5.976562-9.238281-8.148438-14-4.089844-25.347657 21.597656-31.042969 39.230469-31.042969 55.519532 0 20.652343 17.964844 37.105468 39.117188 34.585937 17.722656-2.105469 31.078124-17.769531 30.550781-35.609375zm0 0" fill="#7acefa"/><path d="m216.644531 279.78125c-16.066406 0-31.367187 8.488281-39.9375 22.152344-6.695312 10.675781-7.863281 22.316406-3.210937 31.941406 5.550781 11.472656 13.390625 14.265625 20.980468 14.265625 4.015626 0 7.964844-.785156 11.46875-1.480469 3.550782-.703125 7.226563-1.433594 10.699219-1.433594 3.472657 0 7.144531.726563 10.699219 1.433594 10.113281 2.011719 23.960938 4.757813 32.445312-12.785156 4.65625-9.625 3.488282-21.265625-3.210937-31.941406-8.566406-13.664063-23.867187-22.152344-39.933594-22.152344zm29.644531 47.566406c-3.308593 6.84375-5.839843 6.621094-16.023437 4.601563-4.066406-.808594-8.671875-1.722657-13.621094-1.722657-4.945312 0-9.554687.914063-13.621093 1.722657-10.183594 2.023437-12.710938 2.238281-16.023438-4.601563-2.324219-4.808594-1.421875-11.328125 2.414062-17.445312 4.585938-7.308594 14.148438-15.121094 27.230469-15.121094 13.085938 0 22.644531 7.8125 27.230469 15.121094 3.835938 6.117187 4.738281 12.636718 2.414062 17.445312zm152.820313 55.917969c-4.152344-3.542969-9.769531-4.746094-15.023437-3.222656-5.273438 1.53125-9.382813 5.566406-11.003907 10.800781-1.628906 5.265625-4.292969 9.855469-7.335937 14.382812-.074219-.460937-.152344-.921874-.230469-1.375-1.191406-7.125-2.417969-14.417968-3.789063-21.964843.902344.058593 1.804688.097656 2.707032.097656 9.171875 0 18.359375-2.929687 25.953125-8.90625 9.578125-7.539063 15.480469-18.785156 16.195312-30.855469.71875-12.078125-3.773437-23.910156-12.324219-32.460937-10.472656-10.472657-23.019531-16.648438-39.074218-18.957031-.140625-2.582032-.308594-5.164063-.511719-7.726563-2.628906-32.710937-11.820313-62.550781-26.585937-86.496094-.320313-5.367187-2.292969-10.546875-5.765626-14.847656-3.152343-3.894531-7.273437-6.742187-11.878906-8.308594-1.402344-1.488281-2.828125-2.9375-4.277344-4.347656 11.765626-5.066406 21.785157-11.703125 29.890626-19.808594 11.089843-11.089843 19.417968-25.722656 24.753906-43.5 1.191406-3.96875-1.058594-8.148437-5.023438-9.339843-3.96875-1.191407-8.148437 1.058593-9.339844 5.023437-4.617187 15.375-11.679687 27.894531-20.996093 37.207031-8.28125 8.28125-19.121094 14.785156-32.253907 19.371094-11.007812-8.175781-23.105468-14.382812-36.089843-18.515625 9.132812-16.636719 13.769531-33.140625 13.769531-49.175781 0-2.59375-.132812-5.152344-.363281-7.683594 9.972656-9.734375 32.855469-25.546875 76.792969-26.484375 1.378906-.050781 2.695312.492187 3.679687 1.476563.984375.984374 1.507813 2.292968 1.480469 3.679687-.054688 2.496094-.167969 5.042969-.335938 7.570313-.277344 4.132812 2.851563 7.707031 6.984375 7.984374 4.128907.269532 7.707031-2.851562 7.980469-6.984374.183594-2.753907.308594-5.527344.367188-8.25.117187-5.515626-1.96875-10.703126-5.871094-14.605469-3.90625-3.902344-9.085938-6-14.605469-5.867188-19.390625.410157-53.855469 4.285157-79.691406 24.414063-7.421875-26.117188-24.761719-47.503906-36.171875-59.414063-3.8125-3.984375-8.957032-6.175781-14.476563-6.175781s-10.660156 2.191406-14.480469 6.175781c-11.40625 11.910157-28.746093 33.296875-36.167968 59.414063-25.835938-20.128906-60.300782-24.003906-79.6875-24.414063-5.519532-.101562-10.703125 1.964844-14.605469 5.867188-3.90625 3.902343-5.988281 9.089843-5.871094 14.605469.457031 21.453124 5.144531 61.363281 31.402344 87.621093 8.105469 8.105469 18.125 14.742188 29.890625 19.808594-1.449219 1.410156-2.875 2.855469-4.273438 4.34375-4.609374 1.570313-8.730468 4.414063-11.882812 8.3125-3.472656 4.296875-5.445312 9.476563-5.765625 14.847656-14.761719 23.945313-23.957031 53.785157-26.582031 86.496094-.207032 2.5625-.375 5.144531-.515625 7.726563-16.050781 2.308593-28.601563 8.484374-39.070313 18.957031-8.550781 8.550781-13.046875 20.382812-12.328125 32.460937.714844 12.066406 6.617188 23.3125 16.195313 30.855469 7.59375 5.976563 16.78125 8.90625 25.953125 8.90625.90625 0 1.804687-.039063 2.707031-.097656-1.371094 7.546875-2.59375 14.839843-3.789062 21.964843-.078126.453126-.152344.914063-.230469 1.375-3.039063-4.527343-5.703125-9.117187-7.332031-14.382812-1.621094-5.234375-5.734376-9.269531-11.003907-10.800781-5.253906-1.523438-10.871093-.320313-15.027343 3.21875-23.292969 19.851562-33.679688 38.734375-33.679688 61.230469 0 12.09375 5.1875 23.636718 14.234375 31.671874 7.777344 6.902344 17.835937 10.664063 28.199219 10.664063 1.683594 0 3.378906-.101563 5.070312-.300781 11.300782-1.34375 21.164063-7.246094 27.890625-15.691406 1.347657.539062 2.734375.972656 4.160157 1.269531 1.6875.355469 3.414062.535156 5.128906.535156 11.746094 0 22.019531-8.355469 24.421875-19.867187 2.855469-13.664063 4.992187-26.210938 7.035156-38.390626 4.417969 4.113282 9.195313 7.859376 14.332031 11.214844 7.585938 4.957032 15.984375 9.050782 25.125 12.324219 4.542969 6.617187 6.363282 12.832031 4.992188 17.261719-.980469 3.15625-3.410156 4.9375-5.273438 5.882812-3.699218 1.867188-5.183594 6.378906-3.316406 10.074219 1.320312 2.613281 3.960938 4.121094 6.703125 4.121094 1.136719 0 2.289063-.257813 3.375-.804688 6.300781-3.183593 10.863281-8.449219 12.839844-14.832031 1.578125-5.089844 1.507812-10.585938-.132813-16.304688 6.632813 1.398438 13.585938 2.429688 20.84375 3.101563.773438 6.570313.230469 12.980469-1.667968 19.109375-5.015626 16.167969-19.101563 28.164062-36.761719 31.3125-.585938.105469-1.183594.15625-1.769531.15625-4.824219 0-8.941407-3.457031-9.792969-8.222656-.726563-4.078125-4.617188-6.792969-8.699219-6.066406-4.078125.726562-6.792969 4.621093-6.066406 8.699218 2.125 11.929688 12.453125 20.589844 24.558594 20.589844 1.464843 0 2.945312-.132812 4.398437-.390625 23.207031-4.136719 41.773437-20.089844 48.457031-41.640625 2.273438-7.339844 3.109375-14.941406 2.511719-22.691406 1.769531.039062 3.546875.070312 5.347656.070312 14.210938 0 27.410157-1.242187 39.582031-3.675781 2.03125 4.410156 2.625 8.394531 1.65625 11.507813-1.144531 3.691406-4.699218 6.410156-9.519531 7.265624-13.550781 2.414063-22.613281 15.40625-20.199219 28.960938 2.128907 11.933594 12.457032 20.59375 24.5625 20.59375 1.464844 0 2.945313-.132812 4.398438-.390625 23.207031-4.136719 41.773438-20.089844 48.453125-41.640625 4.425781-14.269531 3.402344-29.566406-2.917969-44.605469 5.007813-3.300781 9.671875-6.960937 13.988282-10.984375 2.035156 12.140625 4.175781 24.707032 7.035156 38.394532 2.402344 11.511718 12.675781 19.867187 24.421875 19.867187 1.714843 0 3.441406-.179687 5.121093-.535156 1.425782-.296875 2.820313-.730469 4.167969-1.269531 6.726563 8.445312 16.59375 14.347656 27.890625 15.691406 1.691406.203125 3.386719.300781 5.070313.300781 10.363281 0 20.421875-3.761719 28.199219-10.664063 9.046874-8.035156 14.234374-19.578124 14.234374-31.671874 0-22.496094-10.386718-41.382813-33.679687-61.226563zm-331.980469 73.714844c-.066406.113281-.121094.230469-.183594.34375-4.089843 7.644531-11.691406 13.234375-20.714843 14.308593-7.964844.949219-15.613281-1.425781-21.535157-6.6875-5.84375-5.1875-9.195312-12.644531-9.195312-20.453124 0-12.660157 3.375-28.480469 28.40625-49.8125.226562-.191407.476562-.285157.746094-.285157.121094 0 .246094.019531.375.054688.296875.085937.6875.300781.851562.828125 2.992188 9.671875 8.433594 17.332031 13.234375 24.09375 5.789063 8.15625 10.789063 15.195312 11.058594 24.320312.140625 4.746094-.976563 9.289063-3.042969 13.289063zm234.855469-269.953125c3.382813 0 6.542969 1.507812 8.667969 4.136718 2.128906 2.632813 2.941406 6.035157 2.230468 9.34375l-1.566406 7.300782c-1.875 8.75-9.730468 15.101562-18.683594 15.101562h-9.554687c-8.949219 0-16.808594-6.351562-18.683594-15.101562l-1.566406-7.300782c-.695313-3.257812.085937-6.605468 2.144531-9.21875.347656-.324218.664063-.683593.945313-1.070312 2.074219-2.042969 4.855469-3.191406 7.808593-3.191406zm-15.207031-15h-13.050782c-6.097656 0-11.882812 2.097656-16.503906 5.867187-10.292968-1.316406-23.773437-2.644531-40.578125-2.644531-16.804687 0-30.28125 1.328125-40.578125 2.644531-4.617187-3.769531-10.40625-5.867187-16.503906-5.867187h-13.050781c12.75-10.027344 27.25-16.96875 43.070312-20.613282.03125-.007812.058594-.015624.089844-.023437 8.621094-1.980469 17.636719-2.984375 26.972656-2.984375 26.507813 0 50.417969 8.113281 70.132813 23.621094zm-108.757813-90.839844c.019531-.117188.039063-.230469.050781-.347656 3.753907-27.882813 22.976563-51.8125 34.925782-64.285156.960937-1.003907 2.257812-1.554688 3.648437-1.554688s2.6875.550781 3.648438 1.554688c11.949219 12.472656 31.171875 36.398437 34.925781 64.28125.011719.117187.03125.238281.050781.355468.390625 3.003906.601563 6.058594.601563 9.148438 0 14.546875-4.671875 29.792968-13.867188 45.386718-8.179687-1.535156-16.644531-2.320312-25.359375-2.320312-8.714843 0-17.179687.785156-25.359375 2.320312-9.199218-15.59375-13.871094-30.839843-13.871094-45.386718 0-3.09375.214844-6.144532.605469-9.152344zm-70.179687 57.472656c-9.679688-9.675781-26.058594-32.59375-27.011719-77.332031-.03125-1.386719.496094-2.695313 1.480469-3.679687.984375-.984376 2.289062-1.53125 3.675781-1.476563 43.941406.9375 66.824219 16.75 76.792969 26.484375-.230469 2.53125-.363282 5.089844-.363282 7.683594 0 16.035156 4.640626 32.539062 13.773438 49.175781-12.988281 4.132813-25.082031 10.339844-36.089844 18.519531-13.132812-4.589844-23.976562-11.09375-32.257812-19.375zm14.796875 52.503906c2.125-2.628906 5.285156-4.136718 8.667969-4.136718h28.257812c2.945312 0 5.71875 1.144531 7.792969 3.175781.289062.402344.621093.777344.984375 1.109375 2.039062 2.613281 2.816406 5.949219 2.121094 9.195312l-1.566407 7.300782c-1.875 8.75-9.734375 15.101562-18.683593 15.101562h-9.554688c-8.949219 0-16.808594-6.351562-18.683594-15.101562l-1.566406-7.300782c-.710938-3.308593.105469-6.710937 2.230469-9.34375zm-44.488281 174.265626c-8.585938 3.035156-18.484376 1.753906-25.96875-4.140626-6.300782-4.960937-10.03125-12.046874-10.5-19.953124-.460938-7.804688 2.4375-15.445313 7.960937-20.96875 6.964844-6.960938 16.726563-13.828126 36.144531-15.304688.121094-.007812.242188-.011719.363282-.027344 2.398437-.171875 4.933593-.269531 7.636718-.269531 3.453125 0 7.167969.148437 11.164063.46875.421875.035156.746093.246094.953125.628906.21875.394531.226562.796875.019531 1.1875-4.722656 8.957031-6.292969 18.21875-7.679687 26.394531-1.671876 9.859376-3.117188 18.375-9.375 25.015626-.203126.214843-.410157.421874-.621094.625-.007813.011718-.015625.019531-.027344.03125-2.816406 2.789062-6.132812 4.855468-9.6875 6.171874-.128906.042969-.257812.085938-.382812.140626zm24.070312 44.261718c-2.125 12.679688-4.324219 25.789063-7.292969 40.015625-.960937 4.597657-5.058593 7.933594-9.742187 7.933594-.683594 0-1.371094-.074219-2.054688-.214844-.003906 0-.007812-.003906-.007812-.003906 1.457031-4.480469 2.191406-9.257813 2.042968-14.175781-.226562-7.628906-2.453124-13.992188-5.527343-19.746094 1.0625-6.035156 2.046875-11.910156 2.929687-17.167969 1.546875-9.21875 3.15625-18.742187 5.050782-28.65625.910156-.441406 1.800781-.925781 2.679687-1.433593 3.710937 8.699218 8.238281 16.636718 13.550781 23.796874-.542968 3.195313-1.085937 6.394532-1.628906 9.652344zm189.035156 55.835938c-5.015625 16.167968-19.097656 28.167968-36.761718 31.316406-.585938.101562-1.183594.15625-1.765626.15625-4.828124 0-8.945312-3.457031-9.792968-8.222656-.964844-5.410156 2.652344-10.597656 8.0625-11.5625 10.449218-1.859375 18.378906-8.4375 21.214844-17.589844 1.867187-6.023438 1.414062-12.691406-1.265626-19.632812 6.535157-1.992188 12.726563-4.378907 18.535157-7.175782 4.335937 11.210938 4.972656 22.398438 1.773437 32.710938zm-74.609375-33.179688c-59.222656 0-97.675781-22.378906-114.371093-66.523437 7.242187-9.261719 9.035156-19.71875 10.757812-29.871094 1.3125-7.753906 2.554688-15.074219 6.15625-21.90625 2.554688-4.84375 2.503906-10.605469-.140625-15.414063-2.636719-4.792968-7.460937-7.914062-12.902344-8.351562-4.527343-.359375-8.835937-.527344-12.949219-.515625.113282-1.832031.230469-3.664063.375-5.484375 1.929688-23.980469 7.601563-46.203125 16.5625-65.296875 5.679688 11.324219 17.445313 18.925781 30.523438 18.925781h9.554688c15.976562 0 30.003906-11.335937 33.351562-26.957031l1.566406-7.296875c.84375-3.933594.765625-7.921875-.164062-11.707031 8.703125-.929688 19.25-1.699219 31.679687-1.699219 12.433594 0 22.976563.765625 31.679688 1.699219-.925781 3.785156-1.003907 7.773437-.160157 11.707031l1.566407 7.296875c3.347656 15.621094 17.375 26.957031 33.351562 26.957031h9.554688c13.078125 0 24.84375-7.601562 30.523437-18.925781 8.957032 19.09375 14.632813 41.316406 16.558594 65.296875.148438 1.820312.265625 3.652344.375 5.488281-4.109375-.015625-8.417969.152344-12.945312.511719-5.441407.4375-10.265626 3.558594-12.902344 8.351562-2.644532 4.808594-2.699219 10.570313-.144532 15.414063 3.601563 6.832031 4.84375 14.152344 6.160157 21.90625 1.71875 10.152344 3.511719 20.609375 10.753906 29.871094-16.695313 44.144531-55.144531 66.523437-114.371094 66.523437zm131.480469 10.898438c-.144531 4.917968.585938 9.695312 2.046875 14.175781-.007813 0-.011719.003906-.019531.003906-.675782.140625-1.363282.214844-2.046875.214844-4.683594 0-8.78125-3.335937-9.738281-7.933594-2.972657-14.226562-5.171876-27.335937-7.304688-40.082031-.539062-3.207031-1.078125-6.390625-1.625-9.582031 5.316406-7.160157 9.839844-15.101563 13.554688-23.800781.878906.507812 1.769531.992187 2.679687 1.433593 1.898437 9.914063 3.507813 19.433594 5.050781 28.652344.882813 5.261719 1.867188 11.136719 2.929688 17.171875-3.070313 5.753906-5.300782 12.117188-5.527344 19.746094zm7.003906-77.824219c-.117187-.046875-.234375-.085937-.351562-.125-3.5625-1.316406-6.886719-3.386719-9.707032-6.183594-.007812-.007812-.019531-.015625-.027343-.023437-.207031-.207032-.417969-.414063-.621094-.628906-6.257813-6.640626-7.703125-15.15625-9.375-25.015626-1.386719-8.175781-2.957031-17.441406-7.679687-26.394531-.207032-.394531-.199219-.792969.019531-1.191406.210937-.382813.53125-.59375.953125-.625 5.816406-.464844 11.886718-.714844 17.976562-.339844.535156.121094 1.085938.191407 1.65625.191407.082032 0 .164063-.003907.246094-.007813.09375 0 .183594-.015625.277344-.019531 12.449218 1.085937 24.84375 5 35.152344 15.308594 5.523437 5.523437 8.425781 13.164062 7.960937 20.96875-.46875 7.90625-4.199219 14.992187-10.5 19.953124-7.488281 5.898438-17.390625 7.175782-25.980469 4.132813zm53.464844 99.523437c-5.921875 5.261719-13.574219 7.636719-21.535156 6.6875-9.019532-1.074218-16.625-6.664062-20.714844-14.308593-.058594-.113281-.117188-.230469-.179688-.34375-2.070312-4-3.1875-8.542969-3.046874-13.289063.273437-9.125 5.273437-16.164062 11.0625-24.320312 4.800781-6.761719 10.238281-14.421875 13.230468-24.09375.164063-.527344.554688-.742188.855469-.828125.417969-.121094.792969-.042969 1.117187.230469 14.046876 11.96875 28.410157 27.25 28.410157 49.8125-.003907 7.808593-3.355469 15.265624-9.199219 20.453124zm-126-186.214843c-7.785156 0-15.1875 3.371093-20.308594 9.246093-2.71875 3.125-2.394531 7.859376.730469 10.582032 3.121094 2.71875 7.855469 2.394531 10.582031-.726563 2.269532-2.605469 5.546875-4.101562 8.996094-4.101562 3.445312 0 6.722656 1.496093 8.996094 4.101562 1.480468 1.699219 3.5625 2.570313 5.65625 2.570313 1.746094 0 3.5-.605469 4.921875-1.84375 3.125-2.722656 3.449219-7.457032.726562-10.582032-5.117187-5.875-12.519531-9.246093-20.300781-9.246093zm-111.589844 9.246093c-5.121094-5.875-12.523437-9.246093-20.304687-9.246093-7.785157 0-15.183594 3.371093-20.304688 9.25-2.722656 3.121093-2.394531 7.859375.726563 10.578125 1.421875 1.238281 3.175781 1.847656 4.925781 1.847656 2.089844 0 4.171875-.871094 5.65625-2.574219 2.269531-2.605469 5.550781-4.101562 8.996094-4.101562 3.445312 0 6.722656 1.496093 8.996093 4.105469 2.71875 3.121093 7.457032 3.445312 10.582032.726562 3.121094-2.722656 3.445312-7.460938.726562-10.585938zm0 0"/></svg>